<?xml version="1.0" encoding="UTF-8"?>
<!-- Generator: Adobe Illustrator 15.0.2, SVG Export Plug-In . SVG Version: 6.00 Build 0)  -->
<!DOCTYPE svg PUBLIC "-//W3C//DTD SVG 1.1//EN" "http://www.w3.org/Graphics/SVG/1.1/DTD/svg11.dtd">
<svg xmlns="http://www.w3.org/2000/svg" xmlns:xlink="http://www.w3.org/1999/xlink" version="1.1" id="Layer_1" x="0px" y="0px" width="512px" height="486.4px" viewBox="0 0 512 486.4" enable-background="new 0 0 512 486.4" xml:space="preserve">
<path d="M230.4,422.4L128,448c-6.144,0.513-12.8,6.65-12.8,12.8v12.8c0,6.4,6.019,12.801,12.8,12.801h256  c5.5,0,12.8-5.25,12.8-12.801v-12.8c-0.25-6.649-7.037-12.55-12.8-12.8l-102.4-25.6H230.4z M473.6,409.6  c33.15,0,38.4-6.774,38.4-38.399V38.4C512,7.794,504.963,0,473.6,0H38.4C7.294,0,0,6.913,0,38.4v332.8  C0,403.325,6.769,409.6,38.4,409.6h171.519h92.156H473.6z M448,64v281.6H64V64H448z" fill="#000000"/>
</svg>
